<svg xmlns="http://www.w3.org/2000/svg" xml:space="preserve" width="1000" height="905" overflow="visible" style="overflow:visible" viewBox="0 0 1000 904.99998"><path d="M1000 905V0H0v905h1000z" style="fill:#fab617;fill-opacity:1;fill-rule:evenodd"/><path d="M837.17 124.426H621.033c-19.397 0-32.559 9.044-48.492 22.957L213.009 453.478c-2.078 2.087-2.078 3.479-2.078 6.261 0 2.088.693 4.175 2.078 6.262L582.24 776.27c10.391 8.348 24.246 13.913 38.794 13.913h215.442c27.017 0 48.492-21.566 48.492-48.697V173.82c0-26.436-21.475-49.393-47.799-49.393z" style="fill:#e30613;fill-opacity:1"/><path d="M197.769 484.088c-4.156-6.261-11.084-15.305-11.084-24.349 0-6.956 2.078-13.913 5.542-19.478l209.208-290.79c2.078-2.088 2.078-5.566 2.078-9.044 0-9.044-6.927-16-15.933-16H170.752c-26.324 0-47.799 22.956-47.799 49.392v567.667c0 27.131 21.475 48.697 47.8 48.697H387.58c9.006 0 15.933-6.956 15.933-16 0-3.479-1.385-6.957-2.77-10.435l-202.974-279.66z" class="st0" style="fill:#e30613;fill-opacity:1"/><path d="M774.125 296.938c-29.788 0-46.406 14.627-46.406 41.062 0 27.131 16.618 43.125 46.406 43.125s46.406-15.298 46.406-43.125c0-26.435-16.618-41.063-46.406-41.063zm0 19.5c15.933 0 23.563 6.953 23.563 21.562 0 16.696-7.63 23.656-23.563 23.656S751.255 354 750.562 338c0-15.305 7.63-21.563 23.563-21.563zM732.563 415.906V498h45.718c26.324 0 40.188-13.923 40.188-41.75 0-27.131-12.478-40.344-40.188-40.344h-45.718zm22.875 20.188h22.843c11.777 0 17.313 5.547 17.313 20.156 0 14.61-5.536 22.281-17.313 22.281h-22.843v-42.437zM732.565 181.471h22.86v33.392l33.252-33.392h31.866l-40.871 40.349 42.95 40.349h-32.56l-33.944-33.392v33.392h-23.553V181.47zM788.677 733.138l-33.944-33.392v33.392h-22.168V652.44h22.86v33.393l33.252-33.393h30.48l-39.485 40.35 42.95 40.348h-33.945zM760.969 533.469l-34.625 82.093h24.218l5.563-13.906h36.719l5.531 13.907h24.938l-34.625-82.094h-27.72zm13.156 21.562 11.781 28.532h-22.875l11.094-28.532z" style="fill:#fab617;fill-opacity:1"/></svg>